<svg width="256" height="256" viewBox="0 0 256 256" fill="none" xmlns="http://www.w3.org/2000/svg">
<path d="M127.211 230.245L115.436 242.02V243.856C115.436 250.562 120.874 256.001 127.58 256.001C127.597 256.001 127.614 255.996 127.629 255.996V230.663L127.211 230.245Z" fill="#4B9EEA"/>
<path d="M127.211 230.245L115.436 242.02V243.856C115.436 250.562 120.874 256.001 127.58 256.001C127.597 256.001 127.614 255.996 127.629 255.996V230.663L127.211 230.245Z" fill="#4B9EEA"/>
<path d="M127.211 205.478C127.349 205.429 127.49 205.395 127.629 205.354V145.58L115.436 157.773V207.795C118.766 204.919 123.244 204.142 127.211 205.478Z" fill="#4B9EEA"/>
<path d="M127.211 205.478C127.349 205.429 127.49 205.395 127.629 205.354V145.58L115.436 157.773V207.795C118.766 204.919 123.244 204.142 127.211 205.478Z" fill="#4B9EEA"/>
<path d="M127.629 48.4998C123.725 50.3773 119.06 50.0713 115.436 47.5332V98.2958L127.629 110.489V48.4998Z" fill="#4B9EEA"/>
<path d="M127.629 48.4998C123.725 50.3773 119.06 50.0713 115.436 47.5332V98.2958L127.629 110.489V48.4998Z" fill="#4B9EEA"/>
<path d="M127.629 0.00481796C127.612 0.00481796 127.597 -4.00543e-05 127.58 -4.00543e-05C120.874 -4.00543e-05 115.436 5.4357 115.436 12.1441V13.4849L127.629 25.6776V0.00481796Z" fill="#4B9EEA"/>
<path d="M127.629 0.00481796C127.612 0.00481796 127.597 -4.00543e-05 127.58 -4.00543e-05C120.874 -4.00543e-05 115.436 5.4357 115.436 12.1441V13.4849L127.629 25.6776V0.00481796Z" fill="#4B9EEA"/>
<path d="M106.281 4.33035C101.537 -0.41317 93.8499 -0.41317 89.1064 4.33035C84.3653 9.07386 84.3653 16.7611 89.1064 21.5046L113.791 46.1889C114.303 46.7014 114.864 47.1337 115.437 47.5345V13.4871L106.281 4.33035Z" fill="#4B9EEA"/>
<path d="M106.281 4.33035C101.537 -0.41317 93.8499 -0.41317 89.1064 4.33035C84.3653 9.07386 84.3653 16.7611 89.1064 21.5046L113.791 46.1889C114.303 46.7014 114.864 47.1337 115.437 47.5345V13.4871L106.281 4.33035Z" fill="#4B9EEA"/>
<path d="M127.629 48.5002V48.1091C126.708 47.5845 125.819 46.9773 125.035 46.1903C120.291 41.4468 120.291 33.7596 125.035 29.016L127.629 26.422V25.6788L115.436 13.4861V47.5335C119.06 50.0716 123.725 50.3777 127.629 48.5002Z" fill="#4B9EEA"/>
<path d="M127.629 48.5002V48.1091C126.708 47.5845 125.819 46.9773 125.035 46.1903C120.291 41.4468 120.291 33.7596 125.035 29.016L127.629 26.422V25.6788L115.436 13.4861V47.5335C119.06 50.0716 123.725 50.3777 127.629 48.5002Z" fill="#4B9EEA"/>
<path d="M125.035 29.0161C120.292 33.7596 120.292 41.4469 125.035 46.1904C125.822 46.9773 126.709 47.5845 127.629 48.1092V26.4221L125.035 29.0161Z" fill="#4B9EEA"/>
<path d="M125.035 29.0161C120.292 33.7596 120.292 41.4469 125.035 46.1904C125.822 46.9773 126.709 47.5845 127.629 48.1092V26.4221L125.035 29.0161Z" fill="#4B9EEA"/>
<path d="M114.755 208.353L90.0681 233.037C85.3271 237.78 85.3271 245.47 90.0681 250.211C94.8117 254.955 102.501 254.955 107.242 250.211L115.437 242.019V207.796C115.214 207.988 114.966 208.139 114.755 208.353Z" fill="#4B9EEA"/>
<path d="M114.755 208.353L90.0681 233.037C85.3271 237.78 85.3271 245.47 90.0681 250.211C94.8117 254.955 102.501 254.955 107.242 250.211L115.437 242.019V207.796C115.214 207.988 114.966 208.139 114.755 208.353Z" fill="#4B9EEA"/>
<path d="M122.494 225.527C117.75 220.784 117.75 213.094 122.494 208.353C123.864 206.981 125.491 206.055 127.211 205.477C123.244 204.141 118.766 204.919 115.436 207.794V242.019L127.211 230.244L122.494 225.527Z" fill="#4B9EEA"/>
<path d="M122.494 225.527C117.75 220.784 117.75 213.094 122.494 208.353C123.864 206.981 125.491 206.055 127.211 205.477C123.244 204.141 118.766 204.919 115.436 207.794V242.019L127.211 230.244L122.494 225.527Z" fill="#4B9EEA"/>
<path d="M127.211 230.245L127.629 230.663V229.825L127.211 230.245Z" fill="#4B9EEA"/>
<path d="M127.629 205.354C127.488 205.396 127.349 205.43 127.211 205.478C127.349 205.522 127.493 205.549 127.629 205.602V205.354Z" fill="#4B9EEA"/>
<path d="M127.63 205.601C127.494 205.55 127.351 205.524 127.212 205.478C125.493 206.056 123.865 206.981 122.496 208.353C117.752 213.094 117.752 220.784 122.496 225.528L127.212 230.244L127.63 229.827V205.601Z" fill="#4B9EEA"/>
<path d="M127.63 205.601C127.494 205.55 127.351 205.524 127.212 205.478C125.493 206.056 123.865 206.981 122.496 208.353C117.752 213.094 117.752 220.784 122.496 225.528L127.212 230.244L127.63 229.827V205.601Z" fill="#4B9EEA"/>
<path d="M14.3253 116.275H12.1442C5.43816 116.275 0 121.713 0 128.419C0 135.128 5.43816 140.563 12.1442 140.563H13.4849L26.0493 127.999L14.3253 116.275Z" fill="#4B9EEA"/>
<path d="M14.3253 116.275H12.1442C5.43816 116.275 0 121.713 0 128.419C0 135.128 5.43816 140.563 12.1442 140.563H13.4849L26.0493 127.999L14.3253 116.275Z" fill="#4B9EEA"/>
<path d="M99.0658 116.275H48.0505C50.1612 119.887 50.2365 124.317 48.3056 127.999C50.3895 131.973 50.1515 136.823 47.5332 140.563H98.2959L110.826 128.035L99.0658 116.275Z" fill="#4B9EEA"/>
<path d="M99.0658 116.275H48.0505C50.1612 119.887 50.2365 124.317 48.3056 127.999C50.3895 131.973 50.1515 136.823 47.5332 140.563H98.2959L110.826 128.035L99.0658 116.275Z" fill="#4B9EEA"/>
<path d="M4.33096 149.719C-0.410126 154.462 -0.410126 162.149 4.33096 166.893C9.07448 171.634 16.7642 171.634 21.5053 166.893L46.192 142.209C46.702 141.696 47.1343 141.138 47.5351 140.562H13.4877L4.33096 149.719Z" fill="#4B9EEA"/>
<path d="M4.33096 149.719C-0.410126 154.462 -0.410126 162.149 4.33096 166.893C9.07448 171.634 16.7642 171.634 21.5053 166.893L46.192 142.209C46.702 141.696 47.1343 141.138 47.5351 140.562H13.4877L4.33096 149.719Z" fill="#4B9EEA"/>
<path d="M48.3061 128C47.7499 129.061 47.082 130.074 46.1906 130.965V130.968C41.4495 135.709 33.7598 135.709 29.0163 130.968L26.0507 128L13.4863 140.564H47.5362C50.1545 136.823 50.3901 131.973 48.3061 128Z" fill="#4B9EEA"/>
<path d="M48.3061 128C47.7499 129.061 47.082 130.074 46.1906 130.965V130.968C41.4495 135.709 33.7598 135.709 29.0163 130.968L26.0507 128L13.4863 140.564H47.5362C50.1545 136.823 50.3901 131.973 48.3061 128Z" fill="#4B9EEA"/>
<path d="M46.192 113.791L21.5053 89.1047C16.7642 84.3636 9.07448 84.3636 4.33096 89.1047C-0.410126 93.8482 -0.410126 101.538 4.33096 106.281L14.3256 116.274H48.0524C47.5375 115.394 46.9473 114.547 46.192 113.791Z" fill="#4B9EEA"/>
<path d="M46.192 113.791L21.5053 89.1047C16.7642 84.3636 9.07448 84.3636 4.33096 89.1047C-0.410126 93.8482 -0.410126 101.538 4.33096 106.281L14.3256 116.274H48.0524C47.5375 115.394 46.9473 114.547 46.192 113.791Z" fill="#4B9EEA"/>
<path d="M29.0159 125.033C33.7594 120.29 41.4491 120.29 46.1902 125.033C47.0816 125.925 47.7495 126.94 48.3057 127.999C50.2391 124.317 50.1613 119.887 48.0507 116.275H14.3263L26.0503 127.999L29.0159 125.033Z" fill="#4B9EEA"/>
<path d="M29.0159 125.033C33.7594 120.29 41.4491 120.29 46.1902 125.033C47.0816 125.925 47.7495 126.94 48.3057 127.999C50.2391 124.317 50.1613 119.887 48.0507 116.275H14.3263L26.0503 127.999L29.0159 125.033Z" fill="#4B9EEA"/>
<path d="M29.0154 125.033L26.0498 127.999L29.0154 130.967C33.7589 135.708 41.4486 135.708 46.1897 130.967V130.964C47.0811 130.075 47.749 129.06 48.3052 127.999C47.749 126.94 47.0811 125.924 46.1897 125.033C41.4486 120.289 33.7589 120.289 29.0154 125.033Z" fill="#4B9EEA"/>
<path d="M29.0154 125.033L26.0498 127.999L29.0154 130.967C33.7589 135.708 41.4486 135.708 46.1897 130.967V130.964C47.0811 130.075 47.749 129.06 48.3052 127.999C47.749 126.94 47.0811 125.924 46.1897 125.033C41.4486 120.289 33.7589 120.289 29.0154 125.033Z" fill="#4B9EEA"/>
<path d="M40.1854 198.675L38.6431 200.217C33.902 204.961 33.902 212.65 38.6431 217.392H38.6455C43.3866 222.135 51.0763 222.135 55.8198 217.392L56.7671 216.442V198.675H40.1854Z" fill="#4B9EEA"/>
<path d="M40.1854 198.675L38.6431 200.217C33.902 204.961 33.902 212.65 38.6431 217.392H38.6455C43.3866 222.135 51.0763 222.135 55.8198 217.392L56.7671 216.442V198.675H40.1854Z" fill="#4B9EEA"/>
<path d="M98.2963 140.563L64.0327 174.827C68.0792 175.891 71.2658 178.968 72.5021 182.939C76.7865 184.273 80.0485 187.872 80.8403 192.368L115.437 157.774V140.563H98.2963Z" fill="#4B9EEA"/>
<path d="M98.2963 140.563L64.0327 174.827C68.0792 175.891 71.2658 178.968 72.5021 182.939C76.7865 184.273 80.0485 187.872 80.8403 192.368L115.437 157.774V140.563H98.2963Z" fill="#4B9EEA"/>
<path d="M127.629 144.837L123.354 140.562H115.436V157.773L127.629 145.58V144.837Z" fill="#4B9EEA"/>
<path d="M127.629 144.837L123.354 140.562H115.436V157.773L127.629 145.58V144.837Z" fill="#4B9EEA"/>
<path d="M115.437 132.646L110.827 128.036L98.2965 140.564H115.437V132.646Z" fill="#4B9EEA"/>
<path d="M115.437 132.646L110.827 128.036L98.2965 140.564H115.437V132.646Z" fill="#4B9EEA"/>
<path d="M115.436 140.563H123.354L115.436 132.645V140.563Z" fill="#4B9EEA"/>
<path d="M115.436 140.563H123.354L115.436 132.645V140.563Z" fill="#4B9EEA"/>
<path d="M56.7666 229.391C56.7666 236.099 62.2023 241.535 68.9108 241.535C75.6168 241.535 81.055 236.099 81.055 229.391V194.481C81.055 193.757 80.9627 193.058 80.8412 192.368L56.7666 216.443V229.391Z" fill="#4B9EEA"/>
<path d="M56.7666 229.391C56.7666 236.099 62.2023 241.535 68.9108 241.535C75.6168 241.535 81.055 236.099 81.055 229.391V194.481C81.055 193.757 80.9627 193.058 80.8412 192.368L56.7666 216.443V229.391Z" fill="#4B9EEA"/>
<path d="M72.503 182.94C72.8576 184.081 73.1054 185.271 73.1054 186.532C73.1054 193.238 67.6672 198.676 60.9612 198.676H56.7666V216.443L80.8412 192.369C80.0494 187.87 76.7875 184.273 72.503 182.94Z" fill="#4B9EEA"/>
<path d="M72.503 182.94C72.8576 184.081 73.1054 185.271 73.1054 186.532C73.1054 193.238 67.6672 198.676 60.9612 198.676H56.7666V216.443L80.8412 192.369C80.0494 187.87 76.7875 184.273 72.503 182.94Z" fill="#4B9EEA"/>
<path d="M60.9613 174.387H26.0492C19.3432 174.387 13.905 179.825 13.905 186.531C13.905 193.239 19.3432 198.675 26.0492 198.675H40.185L64.0338 174.829C63.0452 174.569 62.0276 174.387 60.9613 174.387Z" fill="#4B9EEA"/>
<path d="M60.9613 174.387H26.0492C19.3432 174.387 13.905 179.825 13.905 186.531C13.905 193.239 19.3432 198.675 26.0492 198.675H40.185L64.0338 174.829C63.0452 174.569 62.0276 174.387 60.9613 174.387Z" fill="#4B9EEA"/>
<path d="M56.7667 194.481C56.7667 187.773 62.2025 182.337 68.9109 182.337C70.1715 182.337 71.3616 182.585 72.5032 182.94C71.2669 178.966 68.0802 175.891 64.0338 174.827L40.1851 198.676H56.7667V194.481Z" fill="#4B9EEA"/>
<path d="M56.7667 194.481C56.7667 187.773 62.2025 182.337 68.9109 182.337C70.1715 182.337 71.3616 182.585 72.5032 182.94C71.2669 178.966 68.0802 175.891 64.0338 174.827L40.1851 198.676H56.7667V194.481Z" fill="#4B9EEA"/>
<path d="M56.7666 194.482V198.677H60.9612C67.6672 198.677 73.1054 193.238 73.1054 186.532C73.1054 185.272 72.8576 184.082 72.503 182.94C71.3615 182.586 70.1713 182.338 68.9108 182.338C62.2023 182.338 56.7666 187.774 56.7666 194.482Z" fill="#4B9EEA"/>
<path d="M56.7666 194.482V198.677H60.9612C67.6672 198.677 73.1054 193.238 73.1054 186.532C73.1054 185.272 72.8576 184.082 72.503 182.94C71.3615 182.586 70.1713 182.338 68.9108 182.338C62.2023 182.338 56.7666 187.774 56.7666 194.482Z" fill="#4B9EEA"/>
<path d="M115.436 98.2965L81.172 64.0329C80.1106 68.0794 77.0309 71.2636 73.0597 72.5023C71.7239 76.7868 68.1268 80.0487 63.631 80.8405L99.0653 116.275H115.436V98.2965Z" fill="#4B9EEA"/>
<path d="M115.436 98.2965L81.172 64.0329C80.1106 68.0794 77.0309 71.2636 73.0597 72.5023C71.7239 76.7868 68.1268 80.0487 63.631 80.8405L99.0653 116.275H115.436V98.2965Z" fill="#4B9EEA"/>
<path d="M57.325 40.1843L55.7827 38.642C51.0416 33.9009 43.3519 33.9009 38.6084 38.642C33.8649 43.3855 33.8649 51.0727 38.6084 55.8187L39.5581 56.7659H57.325V40.1843Z" fill="#4B9EEA"/>
<path d="M57.325 40.1843L55.7827 38.642C51.0416 33.9009 43.3519 33.9009 38.6084 38.642C33.8649 43.3855 33.8649 51.0727 38.6084 55.8187L39.5581 56.7659H57.325V40.1843Z" fill="#4B9EEA"/>
<path d="M122.586 116.275L127.63 111.23V110.489L115.438 98.2966V116.275H122.586Z" fill="#4B9EEA"/>
<path d="M122.586 116.275L127.63 111.23V110.489L115.438 98.2966V116.275H122.586Z" fill="#4B9EEA"/>
<path d="M115.438 123.424V116.276H99.0673L110.828 128.034L115.438 123.424Z" fill="#4B9EEA"/>
<path d="M115.438 123.424V116.276H99.0673L110.828 128.034L115.438 123.424Z" fill="#4B9EEA"/>
<path d="M115.436 116.275V123.423L122.584 116.275H115.436Z" fill="#4B9EEA"/>
<path d="M115.436 116.275V123.423L122.584 116.275H115.436Z" fill="#4B9EEA"/>
<path d="M127.629 111.231L122.584 116.275H127.629V111.231Z" fill="#4B9EEA"/>
<path d="M123.355 140.563L127.629 144.838V140.563H123.355Z" fill="#4B9EEA"/>
<path d="M110.827 128.035L115.437 132.645V123.425L110.827 128.035Z" fill="#4B9EEA"/>
<path d="M110.827 128.035L115.437 132.645V123.425L110.827 128.035Z" fill="#4B9EEA"/>
<path d="M125.201 116.275H120.157L113.009 123.423V132.645L120.927 140.563H125.201V116.275Z" fill="#4B9EEA"/>
<path d="M125.201 116.275H120.157L113.009 123.423V132.645L120.927 140.563H125.201V116.275Z" fill="#4B9EEA"/>
<path d="M26.608 56.7649C19.902 56.7649 14.4639 62.2031 14.4639 68.9091C14.4639 75.6175 19.902 81.0533 26.608 81.0533H61.5201C62.2415 81.0533 62.941 80.961 63.6308 80.842L39.5562 56.7649H26.608Z" fill="#4B9EEA"/>
<path d="M26.608 56.7649C19.902 56.7649 14.4639 62.2031 14.4639 68.9091C14.4639 75.6175 19.902 81.0533 26.608 81.0533H61.5201C62.2415 81.0533 62.941 80.961 63.6308 80.842L39.5562 56.7649H26.608Z" fill="#4B9EEA"/>
<path d="M73.0615 72.5022C71.9199 72.8568 70.7298 73.1045 69.4692 73.1045C62.7608 73.1045 57.325 67.6664 57.325 60.9603V56.7657H39.5581L63.6327 80.8404C68.1285 80.0486 71.7256 76.7866 73.0615 72.5022Z" fill="#4B9EEA"/>
<path d="M73.0615 72.5022C71.9199 72.8568 70.7298 73.1045 69.4692 73.1045C62.7608 73.1045 57.325 67.6664 57.325 60.9603V56.7657H39.5581L63.6327 80.8404C68.1285 80.0486 71.7256 76.7866 73.0615 72.5022Z" fill="#4B9EEA"/>
<path d="M81.614 60.9591V26.0495C81.614 19.341 76.1759 13.9053 69.4699 13.9053C62.7614 13.9053 57.3257 19.341 57.3257 26.0495V40.1829L81.172 64.0316C81.4319 63.0455 81.614 62.0278 81.614 60.9591Z" fill="#4B9EEA"/>
<path d="M81.614 60.9591V26.0495C81.614 19.341 76.1759 13.9053 69.4699 13.9053C62.7614 13.9053 57.3257 19.341 57.3257 26.0495V40.1829L81.172 64.0316C81.4319 63.0455 81.614 62.0278 81.614 60.9591Z" fill="#4B9EEA"/>
<path d="M61.5203 56.7644C68.2263 56.7644 73.6645 62.2025 73.6645 68.9085C73.6645 70.1691 73.4167 71.3592 73.0621 72.5008C77.0333 71.2645 80.1106 68.0779 81.172 64.0314L57.3257 40.1827V56.7644H61.5203Z" fill="#4B9EEA"/>
<path d="M61.5203 56.7644C68.2263 56.7644 73.6645 62.2025 73.6645 68.9085C73.6645 70.1691 73.4167 71.3592 73.0621 72.5008C77.0333 71.2645 80.1106 68.0779 81.172 64.0314L57.3257 40.1827V56.7644H61.5203Z" fill="#4B9EEA"/>
<path d="M61.5203 56.7649H57.3257V60.9595C57.3257 67.668 62.7614 73.1037 69.4699 73.1037C70.7304 73.1037 71.9206 72.8584 73.0621 72.5013C73.4167 71.3598 73.6645 70.1697 73.6645 68.9091C73.6645 62.2031 68.2263 56.7649 61.5203 56.7649Z" fill="#4B9EEA"/>
<path d="M61.5203 56.7649H57.3257V60.9595C57.3257 67.668 62.7614 73.1037 69.4699 73.1037C70.7304 73.1037 71.9206 72.8584 73.0621 72.5013C73.4167 71.3598 73.6645 70.1697 73.6645 68.9091C73.6645 62.2031 68.2263 56.7649 61.5203 56.7649Z" fill="#4B9EEA"/>
<path d="M127.63 145.58V205.353C131.764 204.127 136.406 205.089 139.67 208.353L139.726 208.409V156.935L128.002 145.211L127.63 145.58Z" fill="#4B9EEA"/>
<path d="M127.63 145.58V205.353C131.764 204.127 136.406 205.089 139.67 208.353L139.726 208.409V156.935L128.002 145.211L127.63 145.58Z" fill="#4B9EEA"/>
<path d="M127.63 145.58V205.353C131.764 204.127 136.406 205.089 139.67 208.353L139.726 208.409V156.935L128.002 145.211L127.63 145.58Z" fill="#4B9EEA"/>
<path d="M127.63 145.58V205.353C131.764 204.127 136.406 205.089 139.67 208.353L139.726 208.409V156.935L128.002 145.211L127.63 145.58Z" fill="#4B9EEA"/>
<path d="M139.726 243.855V242.76L127.63 230.662V255.994C134.312 255.968 139.726 250.546 139.726 243.855Z" fill="#4B9EEA"/>
<path d="M139.726 243.855V242.76L127.63 230.662V255.994C134.312 255.968 139.726 250.546 139.726 243.855Z" fill="#4B9EEA"/>
<path d="M139.726 243.855V242.76L127.63 230.662V255.994C134.312 255.968 139.726 250.546 139.726 243.855Z" fill="#4B9EEA"/>
<path d="M139.726 243.855V242.76L127.63 230.662V255.994C134.312 255.968 139.726 250.546 139.726 243.855Z" fill="#4B9EEA"/>
<path d="M128.002 48.304C127.878 48.3696 127.757 48.4401 127.63 48.5008V110.49L128.002 110.859L139.728 99.1347V48.0514C136.114 50.1621 131.687 50.2374 128.002 48.304Z" fill="#4B9EEA"/>
<path d="M128.002 48.304C127.878 48.3696 127.757 48.4401 127.63 48.5008V110.49L128.002 110.859L139.728 99.1347V48.0514C136.114 50.1621 131.687 50.2374 128.002 48.304Z" fill="#4B9EEA"/>
<path d="M128.002 48.304C127.878 48.3696 127.757 48.4401 127.63 48.5008V110.49L128.002 110.859L139.728 99.1347V48.0514C136.114 50.1621 131.687 50.2374 128.002 48.304Z" fill="#4B9EEA"/>
<path d="M128.002 48.304C127.878 48.3696 127.757 48.4401 127.63 48.5008V110.49L128.002 110.859L139.728 99.1347V48.0514C136.114 50.1621 131.687 50.2374 128.002 48.304Z" fill="#4B9EEA"/>
<path d="M128.002 26.0495L139.728 14.323V12.1444C139.728 5.45294 134.315 0.0317802 127.63 0.0050621V25.6779L128.002 26.0495Z" fill="#4B9EEA"/>
<path d="M128.002 26.0495L139.728 14.323V12.1444C139.728 5.45294 134.315 0.0317802 127.63 0.0050621V25.6779L128.002 26.0495Z" fill="#4B9EEA"/>
<path d="M128.002 26.0495L139.728 14.323V12.1444C139.728 5.45294 134.315 0.0317802 127.63 0.0050621V25.6779L128.002 26.0495Z" fill="#4B9EEA"/>
<path d="M128.002 26.0495L139.728 14.323V12.1444C139.728 5.45294 134.315 0.0317802 127.63 0.0050621V25.6779L128.002 26.0495Z" fill="#4B9EEA"/>
<path d="M127.63 25.6787V26.4219L128.002 26.0503L127.63 25.6787Z" fill="#4B9EEA"/>
<g opacity="0.399994">
<g opacity="0.399994">
<path opacity="0.399994" d="M127.627 25.6791V26.4223L127.999 26.0507L127.627 25.6791Z" fill="#4B9EEA"/>
</g>
</g>
<path d="M127.63 48.1085V48.4996C127.757 48.4389 127.878 48.3684 128.002 48.3053C127.878 48.2397 127.752 48.179 127.63 48.1085Z" fill="#4B9EEA"/>
<g opacity="0.399994">
<g opacity="0.399994">
<path opacity="0.399994" d="M127.627 48.1085V48.4996C127.753 48.4389 127.875 48.3684 127.999 48.3053C127.875 48.2397 127.749 48.179 127.627 48.1085Z" fill="#4B9EEA"/>
</g>
</g>
<path d="M142.21 46.1896L166.894 21.5029C171.638 16.7618 171.638 9.07209 166.894 4.331C162.153 -0.412518 154.463 -0.412518 149.72 4.331L139.728 14.3232V48.05C140.607 47.5351 141.452 46.9449 142.21 46.1896Z" fill="#4B9EEA"/>
<path d="M142.21 46.1896L166.894 21.5029C171.638 16.7618 171.638 9.07209 166.894 4.331C162.153 -0.412518 154.463 -0.412518 149.72 4.331L139.728 14.3232V48.05C140.607 47.5351 141.452 46.9449 142.21 46.1896Z" fill="#4B9EEA"/>
<path d="M142.21 46.1896L166.894 21.5029C171.638 16.7618 171.638 9.07209 166.894 4.331C162.153 -0.412518 154.463 -0.412518 149.72 4.331L139.728 14.3232V48.05C140.607 47.5351 141.452 46.9449 142.21 46.1896Z" fill="#4B9EEA"/>
<path d="M142.21 46.1896L166.894 21.5029C171.638 16.7618 171.638 9.07209 166.894 4.331C162.153 -0.412518 154.463 -0.412518 149.72 4.331L139.728 14.3232V48.05C140.607 47.5351 141.452 46.9449 142.21 46.1896Z" fill="#4B9EEA"/>
<path d="M130.968 29.0159C135.709 33.7594 135.709 41.4467 130.968 46.1902C130.077 47.0792 129.061 47.7471 128.002 48.3033C131.684 50.2391 136.115 50.1613 139.726 48.0507V14.3239L128.002 26.0503L130.968 29.0159Z" fill="#4B9EEA"/>
<path d="M130.968 29.0159C135.709 33.7594 135.709 41.4467 130.968 46.1902C130.077 47.0792 129.061 47.7471 128.002 48.3033C131.684 50.2391 136.115 50.1613 139.726 48.0507V14.3239L128.002 26.0503L130.968 29.0159Z" fill="#4B9EEA"/>
<path d="M130.968 29.0159C135.709 33.7594 135.709 41.4467 130.968 46.1902C130.077 47.0792 129.061 47.7471 128.002 48.3033C131.684 50.2391 136.115 50.1613 139.726 48.0507V14.3239L128.002 26.0503L130.968 29.0159Z" fill="#4B9EEA"/>
<path d="M130.968 29.0159C135.709 33.7594 135.709 41.4467 130.968 46.1902C130.077 47.0792 129.061 47.7471 128.002 48.3033C131.684 50.2391 136.115 50.1613 139.726 48.0507V14.3239L128.002 26.0503L130.968 29.0159Z" fill="#4B9EEA"/>
<path d="M130.968 46.1898C135.709 41.4463 135.709 33.759 130.968 29.0155L128.002 26.0499L127.63 26.4215V48.1086C127.752 48.179 127.878 48.2397 128.002 48.3053C129.061 47.7491 130.076 47.0812 130.968 46.1898Z" fill="#4B9EEA"/>
<path d="M130.968 46.1898C135.709 41.4463 135.709 33.759 130.968 29.0155L128.002 26.0499L127.63 26.4215V48.1086C127.752 48.179 127.878 48.2397 128.002 48.3053C129.061 47.7491 130.076 47.0812 130.968 46.1898Z" fill="#4B9EEA"/>
<g opacity="0.399994">
<g opacity="0.399994">
<path opacity="0.399994" d="M130.964 46.1899C135.706 41.4464 135.706 33.7591 130.964 29.0156L127.999 26.05L127.627 26.4216V48.1087C127.749 48.1791 127.875 48.2398 127.999 48.3054C129.058 47.7492 130.073 47.0813 130.964 46.1899Z" fill="#4B9EEA"/>
</g>
<g opacity="0.399994">
<path opacity="0.399994" d="M130.964 46.1899C135.706 41.4464 135.706 33.7591 130.964 29.0156L127.999 26.05L127.627 26.4216V48.1087C127.749 48.1791 127.875 48.2398 127.999 48.3054C129.058 47.7492 130.073 47.0813 130.964 46.1899Z" fill="#4B9EEA"/>
</g>
</g>
<path d="M147.179 250.212C151.923 254.955 159.612 254.955 164.354 250.212C169.095 245.471 169.095 237.781 164.354 233.038L139.728 208.409V242.76L147.179 250.212Z" fill="#4B9EEA"/>
<path d="M147.179 250.212C151.923 254.955 159.612 254.955 164.354 250.212C169.095 245.471 169.095 237.781 164.354 233.038L139.728 208.409V242.76L147.179 250.212Z" fill="#4B9EEA"/>
<path d="M147.179 250.212C151.923 254.955 159.612 254.955 164.354 250.212C169.095 245.471 169.095 237.781 164.354 233.038L139.728 208.409V242.76L147.179 250.212Z" fill="#4B9EEA"/>
<path d="M147.179 250.212C151.923 254.955 159.612 254.955 164.354 250.212C169.095 245.471 169.095 237.781 164.354 233.038L139.728 208.409V242.76L147.179 250.212Z" fill="#4B9EEA"/>
<path d="M127.63 205.355V205.602C129.197 206.193 130.669 207.094 131.929 208.352C136.673 213.095 136.673 220.785 131.929 225.529L127.63 229.825V230.663L139.726 242.759V208.41L139.67 208.352C136.406 205.09 131.764 204.128 127.63 205.355Z" fill="#4B9EEA"/>
<path d="M127.63 205.355V205.602C129.197 206.193 130.669 207.094 131.929 208.352C136.673 213.095 136.673 220.785 131.929 225.529L127.63 229.825V230.663L139.726 242.759V208.41L139.67 208.352C136.406 205.09 131.764 204.128 127.63 205.355Z" fill="#4B9EEA"/>
<path d="M127.63 205.355V205.602C129.197 206.193 130.669 207.094 131.929 208.352C136.673 213.095 136.673 220.785 131.929 225.529L127.63 229.825V230.663L139.726 242.759V208.41L139.67 208.352C136.406 205.09 131.764 204.128 127.63 205.355Z" fill="#4B9EEA"/>
<path d="M127.63 205.355V205.602C129.197 206.193 130.669 207.094 131.929 208.352C136.673 213.095 136.673 220.785 131.929 225.529L127.63 229.825V230.663L139.726 242.759V208.41L139.67 208.352C136.406 205.09 131.764 204.128 127.63 205.355Z" fill="#4B9EEA"/>
<path d="M131.929 225.528C136.673 220.784 136.673 213.095 131.929 208.354C130.669 207.093 129.197 206.192 127.63 205.602V229.827L131.929 225.528Z" fill="#4B9EEA"/>
<path d="M131.929 225.528C136.673 220.784 136.673 213.095 131.929 208.354C130.669 207.093 129.197 206.192 127.63 205.602V229.827L131.929 225.528Z" fill="#4B9EEA"/>
<path d="M131.929 225.528C136.673 220.784 136.673 213.095 131.929 208.354C130.669 207.093 129.197 206.192 127.63 205.602V229.827L131.929 225.528Z" fill="#4B9EEA"/>
<path d="M131.929 225.528C136.673 220.784 136.673 213.095 131.929 208.354C130.669 207.093 129.197 206.192 127.63 205.602V229.827L131.929 225.528Z" fill="#4B9EEA"/>
<path d="M157.702 140.563H207.795C204.917 137.236 204.144 132.757 205.478 128.788C204.054 124.555 204.98 119.705 208.353 116.331L208.409 116.275H156.935L145.174 128.035L157.702 140.563Z" fill="#4B9EEA"/>
<path d="M157.702 140.563H207.795C204.917 137.236 204.144 132.757 205.478 128.788C204.054 124.555 204.98 119.705 208.353 116.331L208.409 116.275H156.935L145.174 128.035L157.702 140.563Z" fill="#4B9EEA"/>
<path d="M157.702 140.563H207.795C204.917 137.236 204.144 132.757 205.478 128.788C204.054 124.555 204.98 119.705 208.353 116.331L208.409 116.275H156.935L145.174 128.035L157.702 140.563Z" fill="#4B9EEA"/>
<path d="M157.702 140.563H207.795C204.917 137.236 204.144 132.757 205.478 128.788C204.054 124.555 204.98 119.705 208.353 116.331L208.409 116.275H156.935L145.174 128.035L157.702 140.563Z" fill="#4B9EEA"/>
<path d="M242.02 140.563H243.856C250.564 140.563 256 135.128 256 128.419C256 121.713 250.564 116.275 243.856 116.275H242.76L230.245 128.788L242.02 140.563Z" fill="#4B9EEA"/>
<path d="M242.02 140.563H243.856C250.564 140.563 256 135.128 256 128.419C256 121.713 250.564 116.275 243.856 116.275H242.76L230.245 128.788L242.02 140.563Z" fill="#4B9EEA"/>
<path d="M242.02 140.563H243.856C250.564 140.563 256 135.128 256 128.419C256 121.713 250.564 116.275 243.856 116.275H242.76L230.245 128.788L242.02 140.563Z" fill="#4B9EEA"/>
<path d="M242.02 140.563H243.856C250.564 140.563 256 135.128 256 128.419C256 121.713 250.564 116.275 243.856 116.275H242.76L230.245 128.788L242.02 140.563Z" fill="#4B9EEA"/>
<path d="M208.352 141.246L233.039 165.93C237.78 170.674 245.47 170.674 250.211 165.93C254.954 161.189 254.954 153.5 250.211 148.756L242.018 140.564H207.796C207.99 140.787 208.141 141.032 208.352 141.246Z" fill="#4B9EEA"/>
<path d="M208.352 141.246L233.039 165.93C237.78 170.674 245.47 170.674 250.211 165.93C254.954 161.189 254.954 153.5 250.211 148.756L242.018 140.564H207.796C207.99 140.787 208.141 141.032 208.352 141.246Z" fill="#4B9EEA"/>
<path d="M208.352 141.246L233.039 165.93C237.78 170.674 245.47 170.674 250.211 165.93C254.954 161.189 254.954 153.5 250.211 148.756L242.018 140.564H207.796C207.99 140.787 208.141 141.032 208.352 141.246Z" fill="#4B9EEA"/>
<path d="M208.352 141.246L233.039 165.93C237.78 170.674 245.47 170.674 250.211 165.93C254.954 161.189 254.954 153.5 250.211 148.756L242.018 140.564H207.796C207.99 140.787 208.141 141.032 208.352 141.246Z" fill="#4B9EEA"/>
<path d="M225.527 133.507C220.783 138.248 213.096 138.248 208.352 133.507C206.982 132.137 206.055 130.51 205.477 128.79C204.143 132.756 204.918 137.235 207.794 140.563H242.018L230.243 128.79L225.527 133.507Z" fill="#4B9EEA"/>
<path d="M225.527 133.507C220.783 138.248 213.096 138.248 208.352 133.507C206.982 132.137 206.055 130.51 205.477 128.79C204.143 132.756 204.918 137.235 207.794 140.563H242.018L230.243 128.79L225.527 133.507Z" fill="#4B9EEA"/>
<path d="M225.527 133.507C220.783 138.248 213.096 138.248 208.352 133.507C206.982 132.137 206.055 130.51 205.477 128.79C204.143 132.756 204.918 137.235 207.794 140.563H242.018L230.243 128.79L225.527 133.507Z" fill="#4B9EEA"/>
<path d="M225.527 133.507C220.783 138.248 213.096 138.248 208.352 133.507C206.982 132.137 206.055 130.51 205.477 128.79C204.143 132.756 204.918 137.235 207.794 140.563H242.018L230.243 128.79L225.527 133.507Z" fill="#4B9EEA"/>
<path d="M250.212 108.821C254.955 104.078 254.955 96.3881 250.212 91.647C245.471 86.9035 237.781 86.9035 233.04 91.647L208.409 116.275H242.76L250.212 108.821Z" fill="#4B9EEA"/>
<path d="M250.212 108.821C254.955 104.078 254.955 96.3881 250.212 91.647C245.471 86.9035 237.781 86.9035 233.04 91.647L208.409 116.275H242.76L250.212 108.821Z" fill="#4B9EEA"/>
<path d="M250.212 108.821C254.955 104.078 254.955 96.3881 250.212 91.647C245.471 86.9035 237.781 86.9035 233.04 91.647L208.409 116.275H242.76L250.212 108.821Z" fill="#4B9EEA"/>
<path d="M250.212 108.821C254.955 104.078 254.955 96.3881 250.212 91.647C245.471 86.9035 237.781 86.9035 233.04 91.647L208.409 116.275H242.76L250.212 108.821Z" fill="#4B9EEA"/>
<path d="M205.479 128.789C206.057 127.07 206.984 125.442 208.354 124.072C213.098 119.329 220.785 119.329 225.529 124.072L230.245 128.789L242.761 116.276H208.41L208.354 116.332C204.981 119.705 204.055 124.556 205.479 128.789Z" fill="#4B9EEA"/>
<path d="M205.479 128.789C206.057 127.07 206.984 125.442 208.354 124.072C213.098 119.329 220.785 119.329 225.529 124.072L230.245 128.789L242.761 116.276H208.41L208.354 116.332C204.981 119.705 204.055 124.556 205.479 128.789Z" fill="#4B9EEA"/>
<path d="M205.479 128.789C206.057 127.07 206.984 125.442 208.354 124.072C213.098 119.329 220.785 119.329 225.529 124.072L230.245 128.789L242.761 116.276H208.41L208.354 116.332C204.981 119.705 204.055 124.556 205.479 128.789Z" fill="#4B9EEA"/>
<path d="M205.479 128.789C206.057 127.07 206.984 125.442 208.354 124.072C213.098 119.329 220.785 119.329 225.529 124.072L230.245 128.789L242.761 116.276H208.41L208.354 116.332C204.981 119.705 204.055 124.556 205.479 128.789Z" fill="#4B9EEA"/>
<path d="M225.527 133.507L230.244 128.79L225.527 124.071C220.784 119.33 213.096 119.33 208.353 124.071C206.983 125.443 206.055 127.071 205.477 128.79C206.055 130.51 206.983 132.137 208.353 133.507C213.096 138.248 220.784 138.248 225.527 133.507Z" fill="#4B9EEA"/>
<path d="M225.527 133.507L230.244 128.79L225.527 124.071C220.784 119.33 213.096 119.33 208.353 124.071C206.983 125.443 206.055 127.071 205.477 128.79C206.055 130.51 206.983 132.137 208.353 133.507C213.096 138.248 220.784 138.248 225.527 133.507Z" fill="#4B9EEA"/>
<path d="M225.527 133.507L230.244 128.79L225.527 124.071C220.784 119.33 213.096 119.33 208.353 124.071C206.983 125.443 206.055 127.071 205.477 128.79C206.055 130.51 206.983 132.137 208.353 133.507C213.096 138.248 220.784 138.248 225.527 133.507Z" fill="#4B9EEA"/>
<path d="M225.527 133.507L230.244 128.79L225.527 124.071C220.784 119.33 213.096 119.33 208.353 124.071C206.983 125.443 206.055 127.071 205.477 128.79C206.055 130.51 206.983 132.137 208.353 133.507C213.096 138.248 220.784 138.248 225.527 133.507Z" fill="#4B9EEA"/>
<path d="M218.361 54.847L219.661 53.5476C224.402 48.8065 224.402 41.1168 219.661 36.3733C214.919 31.6297 207.23 31.6297 202.486 36.3733L201.711 37.1481V54.847H218.361Z" fill="#4B9EEA"/>
<path d="M218.361 54.847L219.661 53.5476C224.402 48.8065 224.402 41.1168 219.661 36.3733C214.919 31.6297 207.23 31.6297 202.486 36.3733L201.711 37.1481V54.847H218.361Z" fill="#4B9EEA"/>
<path d="M218.361 54.847L219.661 53.5476C224.402 48.8065 224.402 41.1168 219.661 36.3733C214.919 31.6297 207.23 31.6297 202.486 36.3733L201.711 37.1481V54.847H218.361Z" fill="#4B9EEA"/>
<path d="M218.361 54.847L219.661 53.5476C224.402 48.8065 224.402 41.1168 219.661 36.3733C214.919 31.6297 207.23 31.6297 202.486 36.3733L201.711 37.1481V54.847H218.361Z" fill="#4B9EEA"/>
<path d="M156.934 116.275L194.163 79.0461C189.774 78.7279 186.058 76.1072 184.2 72.3595C180.197 70.3752 177.424 66.2874 177.424 61.5196V61.437L139.726 99.135V116.275H156.934Z" fill="#4B9EEA"/>
<path d="M156.934 116.275L194.163 79.0461C189.774 78.7279 186.058 76.1072 184.2 72.3595C180.197 70.3752 177.424 66.2874 177.424 61.5196V61.437L139.726 99.135V116.275H156.934Z" fill="#4B9EEA"/>
<path d="M156.934 116.275L194.163 79.0461C189.774 78.7279 186.058 76.1072 184.2 72.3595C180.197 70.3752 177.424 66.2874 177.424 61.5196V61.437L139.726 99.135V116.275H156.934Z" fill="#4B9EEA"/>
<path d="M156.934 116.275L194.163 79.0461C189.774 78.7279 186.058 76.1072 184.2 72.3595C180.197 70.3752 177.424 66.2874 177.424 61.5196V61.437L139.726 99.135V116.275H156.934Z" fill="#4B9EEA"/>
<path d="M133.413 116.275H139.726V99.1345L127.999 110.861L133.413 116.275Z" fill="#4B9EEA"/>
<path d="M133.413 116.275H139.726V99.1345L127.999 110.861L133.413 116.275Z" fill="#4B9EEA"/>
<path d="M133.413 116.275H139.726V99.1345L127.999 110.861L133.413 116.275Z" fill="#4B9EEA"/>
<path d="M133.413 116.275H139.726V99.1345L127.999 110.861L133.413 116.275Z" fill="#4B9EEA"/>
<path d="M127.63 144.838V145.581L128.002 145.209L127.63 144.838Z" fill="#4B9EEA"/>
<g opacity="0.399994">
<g opacity="0.399994">
<path opacity="0.399994" d="M127.627 144.838V145.582L127.999 145.21L127.627 144.838Z" fill="#4B9EEA"/>
</g>
</g>
<path d="M139.726 122.586L145.173 128.036L156.934 116.275H139.726V122.586Z" fill="#4B9EEA"/>
<path d="M139.726 122.586L145.173 128.036L156.934 116.275H139.726V122.586Z" fill="#4B9EEA"/>
<path d="M139.726 122.586L145.173 128.036L156.934 116.275H139.726V122.586Z" fill="#4B9EEA"/>
<path d="M139.726 122.586L145.173 128.036L156.934 116.275H139.726V122.586Z" fill="#4B9EEA"/>
<path d="M139.725 116.275H133.413L139.725 122.585V116.275Z" fill="#4B9EEA"/>
<path d="M139.725 116.275H133.413L139.725 122.585V116.275Z" fill="#4B9EEA"/>
<path d="M139.725 116.275H133.413L139.725 122.585V116.275Z" fill="#4B9EEA"/>
<path d="M139.725 116.275H133.413L139.725 122.585V116.275Z" fill="#4B9EEA"/>
<path d="M195.041 79.1356H229.951C236.657 79.1356 242.095 73.6974 242.095 66.9914C242.095 60.2829 236.657 54.8472 229.951 54.8472H218.363L194.165 79.0457C194.458 79.0676 194.74 79.1356 195.041 79.1356Z" fill="#4B9EEA"/>
<path d="M195.041 79.1356H229.951C236.657 79.1356 242.095 73.6974 242.095 66.9914C242.095 60.2829 236.657 54.8472 229.951 54.8472H218.363L194.165 79.0457C194.458 79.0676 194.74 79.1356 195.041 79.1356Z" fill="#4B9EEA"/>
<path d="M195.041 79.1356H229.951C236.657 79.1356 242.095 73.6974 242.095 66.9914C242.095 60.2829 236.657 54.8472 229.951 54.8472H218.363L194.165 79.0457C194.458 79.0676 194.74 79.1356 195.041 79.1356Z" fill="#4B9EEA"/>
<path d="M195.041 79.1356H229.951C236.657 79.1356 242.095 73.6974 242.095 66.9914C242.095 60.2829 236.657 54.8472 229.951 54.8472H218.363L194.165 79.0457C194.458 79.0676 194.74 79.1356 195.041 79.1356Z" fill="#4B9EEA"/>
<path d="M201.71 61.5182C201.71 68.2242 196.274 73.6624 189.566 73.6624C187.628 73.6624 185.823 73.1669 184.198 72.3605C186.059 76.1082 189.775 78.7265 194.164 79.0471L218.36 54.8462H201.71V61.5182Z" fill="#4B9EEA"/>
<path d="M201.71 61.5182C201.71 68.2242 196.274 73.6624 189.566 73.6624C187.628 73.6624 185.823 73.1669 184.198 72.3605C186.059 76.1082 189.775 78.7265 194.164 79.0471L218.36 54.8462H201.71V61.5182Z" fill="#4B9EEA"/>
<path d="M201.71 61.5182C201.71 68.2242 196.274 73.6624 189.566 73.6624C187.628 73.6624 185.823 73.1669 184.198 72.3605C186.059 76.1082 189.775 78.7265 194.164 79.0471L218.36 54.8462H201.71V61.5182Z" fill="#4B9EEA"/>
<path d="M201.71 61.5182C201.71 68.2242 196.274 73.6624 189.566 73.6624C187.628 73.6624 185.823 73.1669 184.198 72.3605C186.059 76.1082 189.775 78.7265 194.164 79.0471L218.36 54.8462H201.71V61.5182Z" fill="#4B9EEA"/>
<path d="M201.713 26.607C201.713 19.901 196.277 14.4629 189.568 14.4629C182.862 14.4629 177.424 19.901 177.424 26.607V61.4366L201.713 37.1482V26.607Z" fill="#4B9EEA"/>
<path d="M201.713 26.607C201.713 19.901 196.277 14.4629 189.568 14.4629C182.862 14.4629 177.424 19.901 177.424 26.607V61.4366L201.713 37.1482V26.607Z" fill="#4B9EEA"/>
<path d="M201.713 26.607C201.713 19.901 196.277 14.4629 189.568 14.4629C182.862 14.4629 177.424 19.901 177.424 26.607V61.4366L201.713 37.1482V26.607Z" fill="#4B9EEA"/>
<path d="M201.713 26.607C201.713 19.901 196.277 14.4629 189.568 14.4629C182.862 14.4629 177.424 19.901 177.424 26.607V61.4366L201.713 37.1482V26.607Z" fill="#4B9EEA"/>
<path d="M184.201 72.3599C183.394 70.735 182.899 68.928 182.899 66.9922C182.899 60.2838 188.335 54.848 195.043 54.848H201.713V37.1491L177.424 61.4374V61.5176C177.424 66.2878 180.2 70.3731 184.201 72.3599Z" fill="#4B9EEA"/>
<path d="M184.201 72.3599C183.394 70.735 182.899 68.928 182.899 66.9922C182.899 60.2838 188.335 54.848 195.043 54.848H201.713V37.1491L177.424 61.4374V61.5176C177.424 66.2878 180.2 70.3731 184.201 72.3599Z" fill="#4B9EEA"/>
<path d="M184.201 72.3599C183.394 70.735 182.899 68.928 182.899 66.9922C182.899 60.2838 188.335 54.848 195.043 54.848H201.713V37.1491L177.424 61.4374V61.5176C177.424 66.2878 180.2 70.3731 184.201 72.3599Z" fill="#4B9EEA"/>
<path d="M184.201 72.3599C183.394 70.735 182.899 68.928 182.899 66.9922C182.899 60.2838 188.335 54.848 195.043 54.848H201.713V37.1491L177.424 61.4374V61.5176C177.424 66.2878 180.2 70.3731 184.201 72.3599Z" fill="#4B9EEA"/>
<path d="M201.712 61.5177V54.8457H195.042C188.334 54.8457 182.898 60.2839 182.898 66.9899C182.898 68.9281 183.394 70.7328 184.2 72.3601C185.825 73.1664 187.63 73.6619 189.568 73.6619C196.276 73.6619 201.712 68.2238 201.712 61.5177Z" fill="#4B9EEA"/>
<path d="M201.712 61.5177V54.8457H195.042C188.334 54.8457 182.898 60.2839 182.898 66.9899C182.898 68.9281 183.394 70.7328 184.2 72.3601C185.825 73.1664 187.63 73.6619 189.568 73.6619C196.276 73.6619 201.712 68.2238 201.712 61.5177Z" fill="#4B9EEA"/>
<path d="M201.712 61.5177V54.8457H195.042C188.334 54.8457 182.898 60.2839 182.898 66.9899C182.898 68.9281 183.394 70.7328 184.2 72.3601C185.825 73.1664 187.63 73.6619 189.568 73.6619C196.276 73.6619 201.712 68.2238 201.712 61.5177Z" fill="#4B9EEA"/>
<path d="M201.712 61.5177V54.8457H195.042C188.334 54.8457 182.898 60.2839 182.898 66.9899C182.898 68.9281 183.394 70.7328 184.2 72.3601C185.825 73.1664 187.63 73.6619 189.568 73.6619C196.276 73.6619 201.712 68.2238 201.712 61.5177Z" fill="#4B9EEA"/>
<path d="M139.726 156.934L176.952 194.161C177.273 189.774 179.891 186.058 183.639 184.198C185.626 180.198 189.711 177.424 194.481 177.424H194.561L157.701 140.564H139.726V156.934Z" fill="#4B9EEA"/>
<path d="M139.726 156.934L176.952 194.161C177.273 189.774 179.891 186.058 183.639 184.198C185.626 180.198 189.711 177.424 194.481 177.424H194.561L157.701 140.564H139.726V156.934Z" fill="#4B9EEA"/>
<path d="M139.726 156.934L176.952 194.161C177.273 189.774 179.891 186.058 183.639 184.198C185.626 180.198 189.711 177.424 194.481 177.424H194.561L157.701 140.564H139.726V156.934Z" fill="#4B9EEA"/>
<path d="M139.726 156.934L176.952 194.161C177.273 189.774 179.891 186.058 183.639 184.198C185.626 180.198 189.711 177.424 194.481 177.424H194.561L157.701 140.564H139.726V156.934Z" fill="#4B9EEA"/>
<path d="M201.155 218.362L202.454 219.661C207.195 224.402 214.885 224.402 219.626 219.661C224.372 214.918 224.372 207.228 219.626 202.487L218.851 201.712H201.155V218.362Z" fill="#4B9EEA"/>
<path d="M201.155 218.362L202.454 219.661C207.195 224.402 214.885 224.402 219.626 219.661C224.372 214.918 224.372 207.228 219.626 202.487L218.851 201.712H201.155V218.362Z" fill="#4B9EEA"/>
<path d="M201.155 218.362L202.454 219.661C207.195 224.402 214.885 224.402 219.626 219.661C224.372 214.918 224.372 207.228 219.626 202.487L218.851 201.712H201.155V218.362Z" fill="#4B9EEA"/>
<path d="M201.155 218.362L202.454 219.661C207.195 224.402 214.885 224.402 219.626 219.661C224.372 214.918 224.372 207.228 219.626 202.487L218.851 201.712H201.155V218.362Z" fill="#4B9EEA"/>
<path d="M127.63 110.488V111.232L128.002 110.86L127.63 110.488Z" fill="#4B9EEA"/>
<g opacity="0.399994">
<g opacity="0.399994">
<path opacity="0.399994" d="M127.627 110.489V111.232L127.999 110.86L127.627 110.489Z" fill="#4B9EEA"/>
</g>
</g>
<path d="M132.646 140.563L127.999 145.21L139.726 156.934V140.563H132.646Z" fill="#4B9EEA"/>
<path d="M132.646 140.563L127.999 145.21L139.726 156.934V140.563H132.646Z" fill="#4B9EEA"/>
<path d="M132.646 140.563L127.999 145.21L139.726 156.934V140.563H132.646Z" fill="#4B9EEA"/>
<path d="M132.646 140.563L127.999 145.21L139.726 156.934V140.563H132.646Z" fill="#4B9EEA"/>
<path d="M139.726 133.486V140.563H157.701L145.173 128.035L139.726 133.486Z" fill="#4B9EEA"/>
<path d="M139.726 133.486V140.563H157.701L145.173 128.035L139.726 133.486Z" fill="#4B9EEA"/>
<path d="M139.726 133.486V140.563H157.701L145.173 128.035L139.726 133.486Z" fill="#4B9EEA"/>
<path d="M139.726 133.486V140.563H157.701L145.173 128.035L139.726 133.486Z" fill="#4B9EEA"/>
<path d="M139.726 140.563V133.486L132.646 140.563H139.726Z" fill="#4B9EEA"/>
<path d="M139.726 140.563V133.486L132.646 140.563H139.726Z" fill="#4B9EEA"/>
<path d="M139.726 140.563V133.486L132.646 140.563H139.726Z" fill="#4B9EEA"/>
<path d="M139.726 140.563V133.486L132.646 140.563H139.726Z" fill="#4B9EEA"/>
<path d="M132.646 140.563H127.63V144.838L128 145.21L132.646 140.563Z" fill="#4B9EEA"/>
<path d="M132.646 140.563H127.63V144.838L128 145.21L132.646 140.563Z" fill="#4B9EEA"/>
<g opacity="0.399994">
<g opacity="0.399994">
<path opacity="0.399994" d="M132.645 140.563H127.629V144.838L127.998 145.21L132.645 140.563Z" fill="#4B9EEA"/>
</g>
<g opacity="0.399994">
<path opacity="0.399994" d="M132.645 140.563H127.629V144.838L127.998 145.21L132.645 140.563Z" fill="#4B9EEA"/>
</g>
</g>
<path d="M133.416 116.275L128.002 110.861L127.63 111.23V116.275H133.416Z" fill="#4B9EEA"/>
<path d="M133.416 116.275L128.002 110.861L127.63 111.23V116.275H133.416Z" fill="#4B9EEA"/>
<g opacity="0.399994">
<g opacity="0.399994">
<path opacity="0.399994" d="M133.415 115.814L128.001 110.4L127.629 110.77V115.814H133.415Z" fill="#4B9EEA"/>
</g>
<g opacity="0.399994">
<path opacity="0.399994" d="M133.415 115.814L128.001 110.4L127.629 110.77V115.814H133.415Z" fill="#4B9EEA"/>
</g>
</g>
<path d="M145.175 128.035L139.728 122.585V133.485L145.175 128.035Z" fill="#4B9EEA"/>
<path d="M145.175 128.035L139.728 122.585V133.485L145.175 128.035Z" fill="#4B9EEA"/>
<path d="M145.175 128.035L139.728 122.585V133.485L145.175 128.035Z" fill="#4B9EEA"/>
<path d="M145.175 128.035L139.728 122.585V133.485L145.175 128.035Z" fill="#4B9EEA"/>
<path d="M127.63 140.563H132.646L139.726 133.486V122.585L133.416 116.275H127.63V140.563Z" fill="#4B9EEA"/>
<path d="M127.63 140.563H132.646L139.726 133.486V122.585L133.416 116.275H127.63V140.563Z" fill="#4B9EEA"/>
<path d="M127.63 140.563H132.646L139.726 133.486V122.585L133.416 116.275H127.63V140.563Z" fill="#4B9EEA"/>
<path d="M127.63 140.563H132.646L139.726 133.486V122.585L133.416 116.275H127.63V140.563Z" fill="#4B9EEA"/>
<path d="M176.866 195.039V229.951C176.866 236.657 182.301 242.095 189.01 242.095C195.718 242.095 201.154 236.657 201.154 229.951V218.363L176.953 194.162C176.931 194.458 176.866 194.74 176.866 195.039Z" fill="#4B9EEA"/>
<path d="M176.866 195.039V229.951C176.866 236.657 182.301 242.095 189.01 242.095C195.718 242.095 201.154 236.657 201.154 229.951V218.363L176.953 194.162C176.931 194.458 176.866 194.74 176.866 195.039Z" fill="#4B9EEA"/>
<path d="M176.866 195.039V229.951C176.866 236.657 182.301 242.095 189.01 242.095C195.718 242.095 201.154 236.657 201.154 229.951V218.363L176.953 194.162C176.931 194.458 176.866 194.74 176.866 195.039Z" fill="#4B9EEA"/>
<path d="M176.866 195.039V229.951C176.866 236.657 182.301 242.095 189.01 242.095C195.718 242.095 201.154 236.657 201.154 229.951V218.363L176.953 194.162C176.931 194.458 176.866 194.74 176.866 195.039Z" fill="#4B9EEA"/>
<path d="M194.482 201.711C187.776 201.711 182.338 196.275 182.338 189.567C182.338 187.628 182.833 185.824 183.639 184.196C179.892 186.059 177.273 189.775 176.953 194.162L201.154 218.36V201.711H194.482Z" fill="#4B9EEA"/>
<path d="M194.482 201.711C187.776 201.711 182.338 196.275 182.338 189.567C182.338 187.628 182.833 185.824 183.639 184.196C179.892 186.059 177.273 189.775 176.953 194.162L201.154 218.36V201.711H194.482Z" fill="#4B9EEA"/>
<path d="M194.482 201.711C187.776 201.711 182.338 196.275 182.338 189.567C182.338 187.628 182.833 185.824 183.639 184.196C179.892 186.059 177.273 189.775 176.953 194.162L201.154 218.36V201.711H194.482Z" fill="#4B9EEA"/>
<path d="M194.482 201.711C187.776 201.711 182.338 196.275 182.338 189.567C182.338 187.628 182.833 185.824 183.639 184.196C179.892 186.059 177.273 189.775 176.953 194.162L201.154 218.36V201.711H194.482Z" fill="#4B9EEA"/>
<path d="M229.395 201.711C236.101 201.711 241.54 196.275 241.54 189.567C241.54 182.858 236.101 177.423 229.395 177.423H194.563L218.852 201.711H229.395Z" fill="#4B9EEA"/>
<path d="M229.395 201.711C236.101 201.711 241.54 196.275 241.54 189.567C241.54 182.858 236.101 177.423 229.395 177.423H194.563L218.852 201.711H229.395Z" fill="#4B9EEA"/>
<path d="M229.395 201.711C236.101 201.711 241.54 196.275 241.54 189.567C241.54 182.858 236.101 177.423 229.395 177.423H194.563L218.852 201.711H229.395Z" fill="#4B9EEA"/>
<path d="M229.395 201.711C236.101 201.711 241.54 196.275 241.54 189.567C241.54 182.858 236.101 177.423 229.395 177.423H194.563L218.852 201.711H229.395Z" fill="#4B9EEA"/>
<path d="M183.639 184.197C185.267 183.39 187.071 182.895 189.01 182.895C195.718 182.895 201.154 188.333 201.154 195.039V201.711H218.85L194.562 177.423H194.482C189.711 177.423 185.626 180.199 183.639 184.197Z" fill="#4B9EEA"/>
<path d="M183.639 184.197C185.267 183.39 187.071 182.895 189.01 182.895C195.718 182.895 201.154 188.333 201.154 195.039V201.711H218.85L194.562 177.423H194.482C189.711 177.423 185.626 180.199 183.639 184.197Z" fill="#4B9EEA"/>
<path d="M183.639 184.197C185.267 183.39 187.071 182.895 189.01 182.895C195.718 182.895 201.154 188.333 201.154 195.039V201.711H218.85L194.562 177.423H194.482C189.711 177.423 185.626 180.199 183.639 184.197Z" fill="#4B9EEA"/>
<path d="M183.639 184.197C185.267 183.39 187.071 182.895 189.01 182.895C195.718 182.895 201.154 188.333 201.154 195.039V201.711H218.85L194.562 177.423H194.482C189.711 177.423 185.626 180.199 183.639 184.197Z" fill="#4B9EEA"/>
<path d="M194.482 201.711H201.154V195.039C201.154 188.333 195.718 182.895 189.009 182.895C187.071 182.895 185.267 183.39 183.639 184.197C182.833 185.824 182.337 187.629 182.337 189.567C182.337 196.275 187.776 201.711 194.482 201.711Z" fill="#4B9EEA"/>
<path d="M194.482 201.711H201.154V195.039C201.154 188.333 195.718 182.895 189.009 182.895C187.071 182.895 185.267 183.39 183.639 184.197C182.833 185.824 182.337 187.629 182.337 189.567C182.337 196.275 187.776 201.711 194.482 201.711Z" fill="#4B9EEA"/>
<path d="M194.482 201.711H201.154V195.039C201.154 188.333 195.718 182.895 189.009 182.895C187.071 182.895 185.267 183.39 183.639 184.197C182.833 185.824 182.337 187.629 182.337 189.567C182.337 196.275 187.776 201.711 194.482 201.711Z" fill="#4B9EEA"/>
<path d="M194.482 201.711H201.154V195.039C201.154 188.333 195.718 182.895 189.009 182.895C187.071 182.895 185.267 183.39 183.639 184.197C182.833 185.824 182.337 187.629 182.337 189.567C182.337 196.275 187.776 201.711 194.482 201.711Z" fill="#4B9EEA"/>
<rect x="120.227" y="112.941" width="14.573" height="32.7893" fill="#4B9EEA"/>
</svg>
